<?xml version="1.0" encoding="UTF-8" standalone="no"?>
<!-- Created with Inkscape (http://www.inkscape.org/) -->

<svg
   width="128"
   height="128"
   viewBox="0 0 33.866663 33.866663"
   version="1.1"
   id="svg1"
   inkscape:version="1.3.2 (091e20e, 2023-11-25, custom)"
   sodipodi:docname="logo.svg"
   inkscape:export-filename="logo.svg"
   inkscape:export-xdpi="96"
   inkscape:export-ydpi="96"
   xmlns:inkscape="http://www.inkscape.org/namespaces/inkscape"
   xmlns:sodipodi="http://sodipodi.sourceforge.net/DTD/sodipodi-0.dtd"
   xmlns="http://www.w3.org/2000/svg"
   xmlns:svg="http://www.w3.org/2000/svg"
   xmlns:rdf="http://www.w3.org/1999/02/22-rdf-syntax-ns#"
   xmlns:cc="http://creativecommons.org/ns#"
   xmlns:dc="http://purl.org/dc/elements/1.1/">
  <defs
     id="defs1">
    <linearGradient
       id="swatch44">
      <stop
         style="stop-color:#1a1a4a;stop-opacity:1;"
         offset="0"
         id="stop44" />
    </linearGradient>
    <clipPath
       clipPathUnits="userSpaceOnUse"
       id="clipPath25">
      <rect
         style="fill:#ff0000;stroke:none;stroke-width:3;stroke-linecap:square;stroke-linejoin:miter;paint-order:stroke markers fill;stop-color:#000000"
         id="rect25-8"
         width="78"
         height="45.033199"
         x="763.61322"
         y="452.82422" />
    </clipPath>
    <clipPath
       clipPathUnits="userSpaceOnUse"
       id="clipPath33">
      <rect
         style="fill:#000000;stroke:none;stroke-width:0.999995;stroke-linecap:butt;stroke-linejoin:bevel;paint-order:stroke markers fill;stop-color:#000000"
         id="rect33"
         width="46.19186"
         height="80.006783"
         x="74.999985"
         y="399.99661" />
    </clipPath>
    <clipPath
       clipPathUnits="userSpaceOnUse"
       id="clipPath54">
      <path
         id="path54"
         style="stroke-width:0.0999999;stroke-linecap:square;paint-order:markers fill stroke;stop-color:#000000"
         d="m 1691.1994,-792.32001 h 1634.8919 v 92.82806 H 1691.1994 Z" />
    </clipPath>
  </defs>
  <sodipodi:namedview
     id="base"
     pagecolor="#ffffff"
     bordercolor="#000000"
     borderopacity="0.3"
     inkscape:pageopacity="0.0"
     inkscape:pageshadow="2"
     inkscape:zoom="4"
     inkscape:cx="68.25"
     inkscape:cy="55.625"
     inkscape:document-units="px"
     inkscape:showpageshadow="0"
     inkscape:pagecheckerboard="0"
     inkscape:deskcolor="#505050"
     showgrid="true"
     showguides="true"
     inkscape:window-width="1920"
     inkscape:window-height="991"
     inkscape:window-x="-9"
     inkscape:window-y="1341"
     inkscape:window-maximized="1"
     inkscape:current-layer="layer1" />
  <metadata
     id="metadata1">
    <rdf:RDF>
      <cc:Work
         rdf:about="">
        <dc:format>image/svg+xml</dc:format>
        <dc:type
           rdf:resource="http://purl.org/dc/dcmitype/StillImage" />
      </cc:Work>
    </rdf:RDF>
  </metadata>
  <g
     inkscape:groupmode="layer"
     id="layer1"
     inkscape:label="Layer 1">
    <rect
       style="fill:#427d9d;stroke:#211951;stroke-width:4.21322;stroke-linecap:butt;stroke-linejoin:round;stroke-dasharray:none;paint-order:stroke fill markers;fill-opacity:1;stroke-opacity:1"
       id="rect7"
       width="29.653442"
       height="29.653442"
       x="2.1068299"
       y="2.1066082"
       inkscape:label="Background" />
    <path
       d="m 11.384492,27.337553 q 0,0.3556 -0.202495,0.567972 -0.197555,0.207433 -0.528461,0.276578 v 0.01975 q 0.419806,0.04939 0.627239,0.2667 0.212373,0.217312 0.212373,0.567973 0,0.31115 -0.143228,0.548217 -0.143228,0.237066 -0.4445,0.370416 -0.296334,0.13335 -0.765528,0.13335 -0.2765781,0 -0.5136448,-0.04445 -0.2370668,-0.03951 -0.4543779,-0.148166 v -0.404989 q 0.22225,0.113594 0.4790723,0.172861 0.2568223,0.05927 0.4938894,0.05927 0.474133,0 0.681566,-0.182738 0.212373,-0.187678 0.212373,-0.513645 0,-0.330906 -0.261761,-0.474133 -0.256823,-0.148167 -0.726017,-0.148167 H 9.7102083 v -0.370417 h 0.3457227 q 0.434622,0 0.656872,-0.182739 0.227189,-0.182739 0.227189,-0.484011 0,-0.256822 -0.172861,-0.395111 -0.172861,-0.143228 -0.469195,-0.143228 -0.286455,0 -0.4889499,0.08396 -0.2024945,0.08396 -0.4000501,0.212372 L 9.1916248,26.828847 q 0.1876779,-0.148167 0.4642557,-0.256822 0.2815167,-0.108656 0.6371165,-0.108656 0.553156,0 0.819856,0.246945 0.271639,0.246944 0.271639,0.627239 z m 3.694292,0.903816 q 0,0.89394 -0.48895,1.348317 -0.484011,0.449439 -1.353256,0.449439 h -0.982839 v -3.526367 h 1.086556 q 0.528461,0 0.918633,0.197556 0.395112,0.197555 0.607484,0.582789 0.212372,0.385233 0.212372,0.948266 z m -0.469194,0.01482 q 0,-0.706261 -0.350662,-1.032228 -0.345722,-0.330905 -0.982839,-0.330905 h -0.57785 v 2.765778 h 0.479072 q 1.432279,0 1.432279,-1.402645 z m 2.978149,1.782939 h -0.4445 v -3.526367 h 1.970617 v 0.390172 h -1.526117 v 1.249539 h 1.432278 v 0.390173 h -1.432278 z m 3.05223,-3.526367 q 0.691445,0 1.007534,0.271639 0.316089,0.271639 0.316089,0.765528 0,0.291394 -0.13335,0.548217 -0.128412,0.251883 -0.439562,0.409928 -0.306211,0.158044 -0.834672,0.158044 h -0.404989 v 1.373011 h -0.4445 v -3.526367 z m -0.03951,0.380295 h -0.449439 v 1.392766 h 0.3556 q 0.503767,0 0.750711,-0.162983 0.246945,-0.162983 0.246945,-0.553156 0,-0.340783 -0.22225,-0.508705 -0.217311,-0.167922 -0.681567,-0.167922 z m 4.094337,2.202744 q 0,0.469195 -0.340783,0.730956 -0.340784,0.261761 -0.918634,0.261761 -0.296333,0 -0.548217,-0.04445 -0.251883,-0.04445 -0.419805,-0.123472 v -0.424744 q 0.1778,0.07902 0.439561,0.143227 0.2667,0.06421 0.548217,0.06421 0.390172,0 0.592666,-0.153106 0.202495,-0.153105 0.202495,-0.414866 0,-0.172862 -0.07408,-0.291395 -0.07408,-0.118533 -0.256822,-0.217311 -0.182739,-0.09878 -0.498828,-0.217311 -0.454378,-0.162984 -0.681567,-0.40005 -0.227188,-0.237067 -0.227188,-0.646995 0,-0.276578 0.143227,-0.479072 0.143228,-0.202495 0.395112,-0.31115 0.251883,-0.108656 0.587727,-0.108656 0.286456,0 0.528462,0.05433 0.242005,0.05433 0.4445,0.143228 l -0.138289,0.380294 q -0.182739,-0.07902 -0.40005,-0.13335 -0.217311,-0.05433 -0.4445,-0.05433 -0.330906,0 -0.498828,0.143228 -0.167922,0.138289 -0.167922,0.370417 0,0.1778 0.07408,0.296333 0.07408,0.118534 0.242006,0.217312 0.167922,0.09384 0.454377,0.197555 0.31115,0.113595 0.523523,0.246945 0.217311,0.128411 0.325966,0.31115 0.113595,0.182739 0.113595,0.459316 z"
       id="text7"
       style="font-size:4.93889px;text-align:center;text-anchor:middle;fill:#9d44c0;stroke:#211951;stroke-width:1.05833;stroke-linejoin:round;paint-order:stroke fill markers"
       inkscape:label="Title"
       aria-label="3D FPS" />
    <path
       sodipodi:type="star"
       style="fill:#9d44c0;fill-opacity:1;stroke:#211951;stroke-width:1.05833;stroke-linecap:butt;stroke-linejoin:round;stroke-dasharray:none;stroke-dashoffset:0;stroke-opacity:1;paint-order:stroke fill markers"
       id="path52"
       inkscape:flatsided="false"
       sodipodi:sides="5"
       sodipodi:cx="22.9526"
       sodipodi:cy="12.435415"
       sodipodi:r1="3.1424489"
       sodipodi:r2="1.5712245"
       sodipodi:arg1="-0.5295896"
       sodipodi:arg2="0.098728932"
       inkscape:rounded="0"
       inkscape:randomized="0"
       d="m 25.664579,10.847915 -1.148406,1.742374 0.784277,1.933807 -2.011972,-0.553776 -1.596806,1.343471 -0.09506,-2.084626 -1.771157,-1.103497 1.953222,-0.734593 0.50217,-2.0254693 1.302218,1.6306223 z"
       inkscape:transform-center-x="0.20758376"
       inkscape:transform-center-y="-0.095717153"
       transform="translate(-12.766145,6.1515617)"
       inkscape:label="Star1" />
    <path
       sodipodi:type="star"
       style="fill:#9d44c0;fill-opacity:1;stroke:#211951;stroke-width:1.05833;stroke-linecap:butt;stroke-linejoin:round;stroke-dasharray:none;stroke-dashoffset:0;stroke-opacity:1;paint-order:stroke fill markers"
       id="path51"
       inkscape:flatsided="false"
       sodipodi:sides="5"
       sodipodi:cx="8.2682285"
       sodipodi:cy="7.8052073"
       sodipodi:r1="4.3721342"
       sodipodi:r2="2.1860671"
       sodipodi:arg1="1.3882365"
       sodipodi:arg2="2.016555"
       inkscape:rounded="0"
       inkscape:randomized="0"
       d="M 9.0619784,12.104686 7.325722,9.7776602 4.4244633,9.8887202 6.1010637,7.5183518 5.0989011,4.7934102 7.8713535,5.6554678 10.153242,3.8603013 l 0.03687,2.9031494 2.412447,1.6154676 -2.7496657,0.9321874 z"
       inkscape:transform-center-x="-0.24528213"
       inkscape:transform-center-y="0.17728636"
       transform="translate(1.7197915,0.06614583)"
       inkscape:label="Star2" />
    <path
       sodipodi:type="star"
       style="fill:#9d44c0;fill-opacity:1;stroke:#211951;stroke-width:1.05833;stroke-linecap:butt;stroke-linejoin:round;stroke-dasharray:none;stroke-dashoffset:0;stroke-opacity:1;paint-order:stroke fill markers"
       id="path53"
       inkscape:flatsided="false"
       sodipodi:sides="5"
       sodipodi:cx="9.1942701"
       sodipodi:cy="20.43906"
       sodipodi:r1="7.2778444"
       sodipodi:r2="3.6389225"
       sodipodi:arg1="-0.13675571"
       sodipodi:arg2="0.49156282"
       inkscape:rounded="0"
       inkscape:randomized="0"
       d="m 16.404165,19.446873 -4.001834,2.709774 -0.03646,4.832828 -3.8137828,-2.968604 -4.6075574,1.458756 1.6447867,-4.544473 -2.8111729,-3.931267 4.8303173,0.159966 2.8701571,-3.888413 1.340513,4.643337 z"
       inkscape:transform-center-x="-0.39688706"
       inkscape:transform-center-y="-0.30660295"
       transform="translate(13.692185,-4.2994787)"
       inkscape:label="Star3" />
  </g>
</svg>
